# xmcd CD database file
#
# Track frame offsets:
#	150
#	13799
#	32142
#	55165
#	71862
#	90781
#	102461
#	127032
#	144977
#	162241
#
# Disc length: 2343 seconds
#
# Revision: 1
# Processed by: cddbd v1.5.2PL0 Copyright (c) Steve Scherf et al.
# Submitted via: CDex 1.78
#
DISCID=8409250a
DTITLE=Dustin Bentall - Streets With No Lights
DYEAR=2007
DGENRE=Rock
TTITLE0=Streets With No Lights
TTITLE1=Crash Hard
TTITLE2=Cold And Lonely
TTITLE3=Helplessly Hoping
TTITLE4=See It Comin'
TTITLE5=The River Song
TTITLE6=Such A Shame
TTITLE7=You Know Nothin'
TTITLE8=Handful Of The Blues
TTITLE9=Blackie
EXTD=YEAR: 2007
EXTT0=
EXTT1=
EXTT2=
EXTT3=
EXTT4=
EXTT5=
EXTT6=
EXTT7=
EXTT8=
EXTT9=
PLAYORDER=
